<svg width="82" height="45" viewBox="0 0 82 45" fill="none" xmlns="http://www.w3.org/2000/svg">
<g clip-path="url(#clip0_257_1114)">
<rect width="82" height="45" fill="white"/>
<path d="M58.68 6.21999C57.6585 5.198 56.4456 4.38728 55.1107 3.83416C53.7758 3.28103 52.345 2.99634 50.9 2.99634C49.455 2.99634 48.0242 3.28103 46.6893 3.83416C45.3544 4.38728 44.1415 5.198 43.12 6.21999L41 8.33999L38.88 6.21999C36.8166 4.15661 34.0181 2.99741 31.1 2.99741C28.1819 2.99741 25.3834 4.15661 23.32 6.21999C21.2566 8.28337 20.0974 11.0819 20.0974 14C20.0974 16.9181 21.2566 19.7166 23.32 21.78L41 39.46L58.68 21.78C59.702 20.7585 60.5127 19.5456 61.0658 18.2107C61.6189 16.8758 61.9036 15.445 61.9036 14C61.9036 12.555 61.6189 11.1242 61.0658 9.78928C60.5127 8.45436 59.702 7.2415 58.68 6.21999Z" stroke="#1E1E1E" stroke-width="4" stroke-linecap="round" stroke-linejoin="round"/>
</g>
<defs>
<clipPath id="clip0_257_1114">
<rect width="82" height="45" fill="white"/>
</clipPath>
</defs>
</svg>
